<svg width="128" height="131" viewBox="0 0 128 131" fill="none" xmlns="http://www.w3.org/2000/svg">
<path d="M118.488 121.867C118.363 121.867 118.301 121.93 118.301 122.055C118.301 122.18 118.363 122.243 118.488 122.243H119.99V130.563H118.488C118.363 130.563 118.301 130.626 118.301 130.751C118.301 130.876 118.363 130.938 118.488 130.938H119.802C120.24 130.938 120.365 130.813 120.365 130.375V122.368C120.365 121.93 120.24 121.805 119.802 121.805H118.488V121.867ZM116.549 122.368C116.549 122.243 116.424 122.18 116.299 122.18C116.174 122.18 116.048 122.243 116.048 122.368V130.438C116.048 130.563 116.174 130.626 116.299 130.626C116.424 130.626 116.549 130.563 116.549 130.438V122.368ZM111.92 123.118C113.108 123.118 113.671 123.994 113.671 125.558C113.671 127.122 113.108 127.998 111.92 127.998C110.731 127.998 110.168 127.122 110.168 125.558C110.168 123.994 110.731 123.118 111.92 123.118ZM111.92 128.436C113.358 128.436 114.109 127.435 114.109 125.558C114.109 123.681 113.358 122.681 111.92 122.681C110.481 122.681 109.73 123.681 109.73 125.558C109.73 127.435 110.481 128.436 111.92 128.436ZM107.165 125.308V122.368C107.165 122.243 107.04 122.18 106.915 122.18C106.79 122.18 106.727 122.243 106.727 122.368V130.438C106.727 130.563 106.852 130.626 106.915 130.626C107.04 130.626 107.165 130.563 107.165 130.438V125.746H108.479C108.604 125.746 108.666 125.621 108.666 125.558C108.666 125.433 108.604 125.371 108.479 125.371H107.165V125.308ZM101.972 123.306C102.098 123.306 102.16 123.369 102.16 123.494V124.307C102.16 125.809 102.16 126.184 100.409 127.873C100.346 127.936 100.346 128.061 100.409 128.123C100.534 128.248 100.596 128.186 100.721 128.123C102.598 126.372 102.661 125.934 102.661 124.307V123.431C102.661 122.993 102.536 122.868 102.035 122.868H100.721C100.596 122.868 100.534 122.993 100.534 123.056C100.534 123.181 100.596 123.244 100.721 123.244H101.972V123.306ZM104.475 123.306C104.6 123.306 104.663 123.369 104.663 123.494V124.62C104.663 126.121 104.537 126.872 102.786 128.686C102.723 128.749 102.723 128.874 102.786 128.937C102.911 129.062 102.973 128.999 103.099 128.937C104.975 126.997 105.1 126.246 105.1 124.62V123.494C105.1 123.056 104.975 122.931 104.475 122.931H103.224C103.099 122.931 103.036 123.056 103.036 123.118C103.036 123.244 103.099 123.306 103.224 123.306H104.475ZM98.0312 125.308V122.368C98.0312 122.243 97.9061 122.18 97.781 122.18C97.6559 122.18 97.5933 122.243 97.5933 122.368V130.438C97.5933 130.563 97.7184 130.626 97.781 130.626C97.9061 130.626 98.0312 130.563 98.0312 130.438V125.746H99.4701C99.5952 125.746 99.6578 125.621 99.6578 125.558C99.6578 125.433 99.5952 125.371 99.4701 125.371H98.0312V125.308ZM94.8407 123.306C94.9658 123.306 95.0284 123.369 95.0284 123.494V124.62C95.0284 126.121 94.5904 126.497 91.5876 128.311C91.525 128.373 91.4624 128.499 91.525 128.624C91.5876 128.749 91.7127 128.749 91.7752 128.686C94.9032 126.747 95.4037 126.309 95.4037 124.682V123.556C95.4037 123.118 95.2786 122.993 94.7781 122.993H91.7752C91.6501 122.993 91.5876 123.118 91.5876 123.181C91.5876 123.306 91.6501 123.369 91.7752 123.369H94.8407V123.306ZM82.0785 130.626C81.9534 130.626 81.8908 130.563 81.8908 130.438V128.248C81.8908 128.123 81.7657 128.061 81.6406 128.061C81.5154 128.061 81.3903 128.123 81.3903 128.248V130.438C81.3903 130.876 81.5154 131.001 82.0159 131.001H87.0207C87.1458 131.001 87.2084 130.876 87.2084 130.813C87.2084 130.688 87.1458 130.626 87.0207 130.626H82.0785ZM86.4577 128.624C86.4577 128.749 86.5828 128.811 86.7079 128.811C86.833 128.811 86.9581 128.749 86.9581 128.624V122.368C86.9581 122.243 86.833 122.18 86.7079 122.18C86.5828 122.18 86.4577 122.243 86.4577 122.368V123.681H84.7685C84.6434 123.681 84.5809 123.744 84.5809 123.869C84.5809 123.994 84.6434 124.057 84.7685 124.057H86.4577V125.621H84.7685C84.6434 125.621 84.5809 125.683 84.5809 125.809C84.5809 125.934 84.6434 125.996 84.7685 125.996H86.4577V128.624ZM83.7676 124.808C83.7676 125.746 83.2671 126.622 82.0785 126.622C80.8898 126.622 80.3894 125.746 80.3894 124.808C80.3894 123.869 80.8898 122.993 82.0785 122.993C83.2671 122.993 83.7676 123.869 83.7676 124.808ZM80.014 124.808C80.014 125.996 80.7022 126.997 82.141 126.997C83.5799 126.997 84.2681 125.996 84.2681 124.808C84.2681 123.619 83.5799 122.618 82.141 122.618C80.6396 122.618 80.014 123.619 80.014 124.808ZM77.3865 125.308V122.368C77.3865 122.243 77.2614 122.18 77.1363 122.18C77.0111 122.18 76.9486 122.243 76.9486 122.368V130.438C76.9486 130.563 77.0737 130.626 77.1363 130.626C77.2614 130.626 77.3865 130.563 77.3865 130.438V125.746H78.8254C78.9505 125.746 79.013 125.621 79.013 125.558C79.013 125.433 78.9505 125.371 78.8254 125.371H77.3865V125.308ZM75.5723 123.306C75.6974 123.306 75.7599 123.244 75.7599 123.118C75.7599 122.993 75.6974 122.931 75.5723 122.931H70.9428C70.8177 122.931 70.7551 122.993 70.7551 123.118C70.7551 123.244 70.8177 123.306 70.9428 123.306H73.0073V124.62C73.0073 125.558 72.8196 125.996 72.194 126.622C71.6935 127.122 71.2556 127.56 70.6926 128.061C70.5675 128.123 70.63 128.248 70.6926 128.373C70.7551 128.436 70.8803 128.499 71.0054 128.373C71.5059 127.936 71.9438 127.56 72.3817 127.06C73.0699 126.372 73.195 126.121 73.2575 125.871C73.3201 126.121 73.4452 126.372 74.1334 127.06C74.6339 127.56 75.0718 127.936 75.3846 128.248C75.5097 128.373 75.5723 128.311 75.6974 128.248C75.7599 128.186 75.7599 128.061 75.6974 127.936C75.322 127.623 74.8215 127.122 74.3211 126.622C73.6329 125.934 73.5078 125.496 73.5078 124.62V123.306H75.5723ZM68.2528 121.867C67.8148 121.867 67.6897 121.992 67.6897 122.43V130.438C67.6897 130.876 67.8148 131.001 68.2528 131.001H69.5665C69.6916 131.001 69.7542 130.938 69.7542 130.813C69.7542 130.688 69.6916 130.626 69.5665 130.626H68.0651V122.305H69.5665C69.6916 122.305 69.7542 122.243 69.7542 122.117C69.7542 121.992 69.6916 121.93 69.5665 121.93H68.2528V121.867ZM60.8707 130.688H61.5589V127.936C61.5589 127.685 61.6214 127.435 61.684 127.247C61.7465 127.06 61.8717 126.872 61.9968 126.684C62.1219 126.497 62.3096 126.372 62.4972 126.309C62.6849 126.246 62.9352 126.184 63.248 126.184C63.3105 126.184 63.4356 126.184 63.4982 126.246L63.5608 125.621C63.4982 125.621 63.4357 125.621 63.3731 125.558C63.3105 125.558 63.248 125.558 63.1854 125.558C62.8101 125.558 62.4973 125.683 62.247 125.871C61.9968 126.059 61.7465 126.309 61.6214 126.622C61.6214 126.559 61.6214 126.434 61.6214 126.309C61.6214 126.121 61.6214 125.934 61.6214 125.746H60.9333C60.9333 125.809 60.9333 125.934 60.9333 125.996C60.9333 126.121 60.9333 126.246 60.9333 126.372C60.9333 126.497 60.9333 126.622 60.9333 126.809C60.9333 126.935 60.9333 127.06 60.9333 127.185V130.688H60.8707ZM58.1181 128.186V128.499C58.1181 128.686 58.1181 128.936 58.0555 129.124C57.993 129.312 57.9304 129.5 57.8053 129.687C57.6801 129.875 57.4925 130 57.2422 130.063C56.992 130.188 56.7417 130.188 56.3664 130.188C56.2413 130.188 56.1161 130.188 55.9285 130.125C55.8033 130.063 55.6782 130 55.5531 129.937C55.428 129.875 55.3654 129.75 55.3029 129.625C55.2403 129.5 55.1778 129.374 55.1778 129.187C55.1778 128.999 55.2403 128.811 55.3654 128.624C55.4906 128.499 55.6782 128.373 55.8659 128.248C56.0536 128.186 56.3038 128.123 56.5541 128.061C56.8043 127.998 57.0545 127.998 57.3673 127.998H58.1181V128.186ZM58.6811 127.373C58.6811 126.747 58.4934 126.246 58.1181 125.996C57.7427 125.683 57.2422 125.558 56.6792 125.558C56.3664 125.558 55.991 125.621 55.6782 125.746C55.3029 125.871 55.0526 126.059 54.8024 126.309L55.1778 126.747C55.6157 126.372 56.1161 126.184 56.7417 126.184C57.1797 126.184 57.4925 126.309 57.7427 126.497C57.993 126.684 58.1181 126.997 58.1181 127.435V127.748H57.3673C57.1171 127.748 56.8043 127.748 56.4915 127.81C56.1787 127.873 55.8659 127.936 55.5531 127.998C55.2403 128.123 55.0526 128.311 54.8024 128.499C54.6147 128.749 54.4896 129.062 54.4896 129.437C54.4896 129.687 54.5522 129.937 54.6773 130.125C54.8024 130.313 54.9275 130.501 55.1152 130.563C55.3029 130.688 55.4906 130.751 55.6782 130.813C55.8659 130.876 56.1162 130.876 56.3038 130.876C56.7417 130.876 57.1171 130.813 57.3673 130.626C57.6176 130.501 57.8678 130.25 58.0555 129.875C58.0555 130.188 58.0555 130.438 58.1181 130.688H58.7437C58.7437 130.563 58.6811 130.375 58.6811 130.25C58.6811 130.125 58.6811 129.937 58.6811 129.75C58.6811 129.562 58.6811 129.374 58.6811 129.187C58.6811 128.999 58.6811 128.749 58.6811 128.499V127.373ZM48.609 127.748C48.609 127.685 48.609 127.56 48.6715 127.373C48.7341 127.185 48.8592 126.997 48.9843 126.809C49.1095 126.622 49.2971 126.434 49.5474 126.309C49.7976 126.184 50.1104 126.121 50.4232 126.121C50.6734 126.121 50.8611 126.184 51.1114 126.246C51.299 126.309 51.4867 126.434 51.6744 126.622C51.8621 126.747 51.9246 126.935 52.0498 127.122C52.1123 127.31 52.1749 127.56 52.1749 127.748H48.609ZM52.2374 129.374C52.0498 129.625 51.7995 129.875 51.4867 130.063C51.1739 130.25 50.8611 130.313 50.4858 130.313C50.1104 130.313 49.7976 130.25 49.5474 130.125C49.2971 130 49.1095 129.812 48.9843 129.625C48.8592 129.437 48.7341 129.187 48.6715 128.999C48.609 128.811 48.609 128.624 48.609 128.499H52.863V128.061C52.863 127.748 52.8005 127.498 52.7379 127.185C52.6128 126.872 52.4877 126.622 52.3 126.434C52.1123 126.184 51.8621 126.059 51.5493 125.871C51.2365 125.746 50.9237 125.683 50.5483 125.683C50.173 125.683 49.8602 125.746 49.5474 125.871C49.2346 125.996 48.9843 126.184 48.7341 126.434C48.4839 126.684 48.3587 126.935 48.2336 127.247C48.1085 127.56 48.0459 127.936 48.0459 128.311C48.0459 128.686 48.1085 129.062 48.2336 129.374C48.3587 129.687 48.5464 130 48.7341 130.188C48.9843 130.438 49.2346 130.626 49.5474 130.751C49.8602 130.876 50.2355 130.938 50.6109 130.938C51.0488 130.938 51.4867 130.876 51.8621 130.688C52.2374 130.5 52.5502 130.25 52.8005 129.875L52.2374 129.374ZM39.4752 130.688H40.226V123.869L44.9179 130.688H45.8563V122.931H45.1056V129.75L40.4136 122.931H39.4752V130.688ZM29.841 127.748C29.841 127.685 29.841 127.56 29.9036 127.373C29.9662 127.185 30.0913 126.997 30.2164 126.809C30.3415 126.622 30.5292 126.434 30.7794 126.309C31.0297 126.184 31.3425 126.121 31.6553 126.121C31.9055 126.121 32.1557 126.184 32.3434 126.246C32.5311 126.309 32.7188 126.434 32.9065 126.622C33.0941 126.747 33.1567 126.935 33.2818 127.122C33.3444 127.31 33.4069 127.56 33.4069 127.748H29.841ZM33.4069 129.374C33.2193 129.625 32.969 129.875 32.6562 130.063C32.3434 130.25 32.0306 130.313 31.6553 130.313C31.2799 130.313 30.9671 130.25 30.7169 130.125C30.4666 130 30.2789 129.812 30.1538 129.625C30.0287 129.437 29.9036 129.187 29.841 128.999C29.7785 128.811 29.7785 128.624 29.7785 128.499H34.0325V128.061C34.0325 127.748 33.97 127.498 33.9074 127.185C33.7823 126.872 33.6572 126.622 33.4695 126.434C33.2818 126.184 33.0316 126.059 32.7188 125.871C32.406 125.746 32.0932 125.683 31.7178 125.683C31.3425 125.683 31.0297 125.746 30.7169 125.871C30.4041 125.996 30.1538 126.184 29.9036 126.434C29.6534 126.684 29.5282 126.935 29.4031 127.247C29.278 127.56 29.2154 127.936 29.2154 128.311C29.2154 128.686 29.278 129.062 29.4031 129.374C29.5282 129.687 29.7159 130 29.9036 130.188C30.1538 130.438 30.4041 130.626 30.7169 130.751C31.0297 130.876 31.405 130.938 31.7804 130.938C32.2183 130.938 32.6562 130.876 33.0316 130.688C33.4069 130.5 33.7197 130.25 33.97 129.875L33.4069 129.374ZM25.5244 130.688H26.15V127.936C26.15 127.685 26.2126 127.435 26.2751 127.247C26.3377 127.06 26.4628 126.872 26.5879 126.684C26.713 126.497 26.9007 126.372 27.0884 126.309C27.2761 126.246 27.5263 126.184 27.8391 126.184C27.9017 126.184 28.0268 126.184 28.0894 126.246L28.1519 125.621C28.0894 125.621 28.0268 125.621 27.9642 125.558C27.9017 125.558 27.8391 125.558 27.7766 125.558C27.4012 125.558 27.0884 125.683 26.8382 125.871C26.5879 126.059 26.3377 126.309 26.2126 126.622C26.2126 126.559 26.2126 126.434 26.2126 126.309C26.2126 126.121 26.2126 125.934 26.2126 125.746H25.587C25.587 125.809 25.587 125.934 25.587 125.996C25.587 126.121 25.587 126.246 25.587 126.372C25.587 126.497 25.587 126.622 25.587 126.809C25.587 126.935 25.587 127.06 25.587 127.185V130.688H25.5244ZM23.3348 125.621H22.6467V128.123C22.6467 128.499 22.5841 128.749 22.5215 129.062C22.459 129.312 22.3338 129.562 22.1462 129.687C21.9585 129.875 21.7708 130 21.5831 130.063C21.3955 130.125 21.1452 130.188 20.895 130.188C20.6447 130.188 20.3945 130.125 20.2694 130.063C20.0817 130 19.9566 129.875 19.894 129.687C19.8315 129.562 19.7689 129.374 19.7063 129.187C19.6438 128.999 19.6438 128.811 19.6438 128.561V125.558H18.9556V128.561C18.9556 128.811 18.9556 129.124 19.0182 129.374C19.0807 129.625 19.1433 129.875 19.331 130.063C19.4561 130.25 19.6438 130.438 19.894 130.563C20.1443 130.688 20.4571 130.751 20.895 130.751C21.3329 130.751 21.6457 130.626 21.9585 130.438C22.2713 130.25 22.459 130 22.5841 129.75H22.6467C22.6467 129.812 22.6467 129.937 22.6467 130.063C22.6467 130.25 22.6467 130.438 22.6467 130.626H23.3348C23.3348 130.563 23.3348 130.438 23.3348 130.375C23.3348 130.25 23.3348 130.125 23.3348 130C23.3348 129.875 23.3348 129.75 23.3348 129.562C23.3348 129.437 23.3348 129.312 23.3348 129.187V125.621ZM17.3916 125.621H15.9528V124.182H15.3272V125.621H14.2011V126.184H15.3272V129.5C15.3272 129.687 15.3272 129.875 15.3897 130C15.4523 130.188 15.5148 130.313 15.64 130.438C15.7651 130.563 15.8902 130.626 16.0153 130.688C16.203 130.751 16.3907 130.813 16.6409 130.813C16.766 130.813 16.8911 130.813 17.0788 130.751C17.2665 130.688 17.3916 130.688 17.5167 130.626L17.4542 130.063C17.3291 130.125 17.2039 130.188 17.0788 130.188C16.9537 130.25 16.8286 130.25 16.7035 130.25C16.4532 130.25 16.3281 130.188 16.203 130.063C16.0779 129.937 16.0153 129.75 16.0153 129.562V126.246H17.4542V125.621H17.3916ZM12.1366 128.186V128.499C12.1366 128.686 12.1366 128.936 12.074 129.124C12.0115 129.312 11.9489 129.5 11.8238 129.687C11.6987 129.875 11.511 130 11.2608 130.063C11.0105 130.188 10.7603 130.188 10.3849 130.188C10.2598 130.188 10.1347 130.188 9.94701 130.125C9.82189 130.063 9.69677 130 9.57165 129.937C9.44653 129.875 9.38397 129.75 9.32141 129.625C9.25885 129.5 9.19629 129.374 9.19629 129.187C9.19629 128.999 9.25885 128.811 9.38397 128.624C9.50909 128.499 9.69677 128.373 9.88445 128.248C10.0721 128.186 10.3224 128.123 10.5726 128.061C10.8228 127.998 11.0731 127.998 11.3859 127.998H12.1366V128.186ZM12.7622 127.373C12.7622 126.747 12.5745 126.246 12.1992 125.996C11.8238 125.683 11.3233 125.558 10.7603 125.558C10.4475 125.558 10.0721 125.621 9.75933 125.746C9.38397 125.871 9.13373 126.059 8.88349 126.309L9.25885 126.747C9.69677 126.372 10.1972 126.184 10.8228 126.184C11.2608 126.184 11.5736 126.309 11.8238 126.497C12.074 126.684 12.1992 126.997 12.1992 127.435V127.748H11.4484C11.1982 127.748 10.8854 127.748 10.5726 127.81C10.2598 127.873 9.94701 127.936 9.63421 127.998C9.32141 128.123 9.13373 128.311 8.88349 128.499C8.69581 128.749 8.57069 129.062 8.57069 129.437C8.57069 129.687 8.63325 129.937 8.75837 130.125C8.88349 130.313 9.00861 130.501 9.19629 130.563C9.38397 130.688 9.57165 130.751 9.75933 130.813C9.94701 130.876 10.1972 130.876 10.3849 130.876C10.8228 130.876 11.1982 130.813 11.4484 130.626C11.7612 130.501 11.9489 130.25 12.1366 129.875C12.1366 130.188 12.1366 130.438 12.1992 130.688H12.8248C12.8248 130.563 12.7622 130.375 12.7622 130.25C12.7622 130.125 12.7622 129.937 12.7622 129.75C12.7622 129.562 12.7622 129.374 12.7622 129.187C12.7622 128.999 12.7622 128.749 12.7622 128.499V127.373ZM0 130.688H0.750716V123.869L5.50526 130.688H6.44366V122.931H5.69294V129.75L1.00096 122.931H0.0625589V130.688H0Z" fill="#FEFCF7"/>
<path d="M117.8 86.1445C116.549 86.1445 115.423 86.7701 115.423 88.1464V111.794C115.423 113.17 116.549 113.796 117.8 113.796C119.051 113.796 120.177 113.17 120.177 111.794V101.347H125.432C126.683 101.347 127.184 100.408 127.184 99.2195C127.184 98.0935 126.683 97.1551 125.432 97.1551H120.177V88.1464C120.24 86.7701 119.051 86.1445 117.8 86.1445ZM76.1351 86.1445C74.9465 86.1445 73.7579 86.7701 73.7579 88.1464V111.794C73.7579 113.17 74.9465 113.796 76.1351 113.796C77.4489 113.796 78.575 113.17 78.575 111.794V88.1464C78.575 86.7701 77.4489 86.1445 76.1351 86.1445ZM47.6078 88.8972C46.3566 88.8972 45.2306 89.5228 45.2306 90.9616V105.913C45.2306 108.666 46.1064 109.542 48.859 109.542C58.5558 109.542 64.3113 109.104 68.7531 108.478C69.8166 108.353 70.2545 107.29 70.1294 106.101C70.0043 104.975 69.3161 104.162 68.19 104.349C62.9976 105.1 57.68 105.413 51.0486 105.413C50.2979 105.413 50.0477 105.1 50.0477 104.412V90.9616C50.0477 89.5228 48.859 88.8972 47.6078 88.8972ZM25.0863 86.5824C23.9602 86.5824 22.8342 87.1455 22.8342 88.4592V95.7787H14.9516C13.8255 95.7787 13.2625 96.7171 13.2625 97.8432C13.2625 98.9693 13.763 99.9077 14.9516 99.9077H22.8342V109.855C22.8342 111.168 23.9602 111.731 25.0863 111.731C26.2124 111.731 27.2759 111.168 27.2759 109.855V88.3967C27.3385 87.2081 26.2124 86.5824 25.0863 86.5824ZM33.9698 86.1445C32.8437 86.1445 31.7802 86.7076 31.7802 88.0213V111.982C31.7802 113.295 32.9063 113.859 33.9698 113.859C35.0959 113.859 36.222 113.295 36.222 111.982V88.0213C36.2845 86.7076 35.1584 86.1445 33.9698 86.1445ZM2.43965 89.2725C1.18845 89.2725 0.0623779 89.8981 0.0623779 91.337V105.913C0.0623779 108.666 1.00078 109.542 3.75341 109.542C10.1345 109.542 15.327 109.167 17.8294 108.791C18.8929 108.603 19.3308 107.603 19.2057 106.414C19.0806 105.288 18.3924 104.475 17.2663 104.662C13.9507 105.163 9.13355 105.413 5.943 105.413C5.19228 105.413 4.94204 105.1 4.94204 104.412V91.3996C4.87948 89.8981 3.7534 89.2725 2.43965 89.2725Z" fill="#FEFCF7"/>
<path d="M104.914 99.9091C104.914 103.663 101.848 106.728 98.0945 106.728C94.3409 106.728 91.2755 103.663 91.2755 99.9091C91.2755 96.1556 94.3409 93.0901 98.0945 93.0901C101.848 93.0901 104.914 96.1556 104.914 99.9091ZM109.355 99.9091C109.355 93.7157 104.35 88.7109 98.1571 88.7109C91.9636 88.7109 86.9589 93.7157 86.9589 99.9091C86.9589 106.103 91.9636 111.107 98.1571 111.107C104.288 111.107 109.355 106.103 109.355 99.9091Z" fill="#FEFCF7"/>
<path d="M55.1767 10.4497C55.1767 16.518 51.1729 21.8356 45.1046 24.9636C44.6041 25.2139 44.2287 25.6518 44.0411 26.2148C44.0411 26.2774 44.0411 26.2774 43.9785 26.3399C51.298 23.2745 56.3028 17.3313 56.3028 10.5123C56.3028 8.88574 55.99 7.32175 55.4895 5.82031C54.989 6.44591 54.8014 7.19663 54.989 8.00991C55.0516 8.76062 55.1767 9.63647 55.1767 10.4497Z" fill="#FEFCF7"/>
<path d="M57.4295 10.4478C57.4295 17.7048 52.1744 24.0233 44.417 27.2764C43.854 27.5266 43.4786 27.9646 43.3535 28.5276C52.4247 25.3996 58.7432 18.4555 58.7432 10.4478C58.7432 8.1331 58.1802 5.88094 57.1792 3.75391C56.6787 4.31694 56.5536 5.06766 56.7413 5.81838C57.1792 7.31982 57.4295 8.88382 57.4295 10.4478Z" fill="#FEFCF7"/>
<path d="M59.9305 10.4458C59.9305 19.0164 53.2992 26.3359 43.7901 29.6516C43.2896 29.8393 42.8517 30.2772 42.7266 30.8402C53.5494 27.7123 61.2443 19.7672 61.2443 10.4458C61.2443 7.38032 60.3684 4.44001 58.867 1.8125C58.3665 2.37554 58.1788 3.18881 58.4916 3.93953C59.43 6.004 59.9305 8.1936 59.9305 10.4458Z" fill="#FEFCF7"/>
<path d="M60.6817 0C60.1812 0.437919 60.1186 1.12608 60.3689 1.68912C61.8077 4.37919 62.621 7.31951 62.621 10.4475C62.621 20.3319 54.6134 28.715 43.3526 32.0932C42.7895 32.2809 42.3516 32.7188 42.2891 33.2818C54.9887 30.1538 64.185 21.0827 64.185 10.4475C64.185 6.94415 63.5594 3.44079 61.4324 0.688162C60.9944 0.187683 60.6817 0 60.6817 0Z" fill="#FEFCF7"/>
<path d="M65.6242 10.4475C65.6242 21.7082 56.1151 31.2799 42.9776 34.6581C42.4145 34.7832 41.9766 35.2837 41.9141 35.8467C56.4905 32.7187 67.2508 22.5215 67.2508 10.4475V10.3849C67.2508 8.38297 66.5001 6.50618 65.2489 4.94219C64.9986 4.69195 64.8109 4.37915 64.5607 4.12891C65.2489 6.19338 65.6242 8.32042 65.6242 10.4475Z" fill="#FEFCF7"/>
<path d="M42.2282 44.8559C56.617 42.5412 68.5659 35.0966 74.5716 25.1496C75.51 23.5856 75.6352 21.5836 74.8844 19.8945C70.5678 31.4681 58.4938 40.4767 43.2917 43.417C42.6036 43.5421 42.1031 44.1677 42.2282 44.8559Z" fill="#FEFCF7"/>
<path d="M41.8516 41.6663C56.3029 39.1639 68.0016 30.9685 72.5059 20.3334C73.2566 18.5817 73.1315 16.5172 72.1305 14.8281C69.8784 27.1524 58.2422 37.162 42.9151 40.29C42.2895 40.4151 41.8516 40.9781 41.8516 41.6663Z" fill="#FEFCF7"/>
<path d="M52.174 10.4456C52.174 10.3205 52.174 10.2579 52.174 10.1328C49.9844 13.3234 47.6697 17.1395 45.8555 21.3936C49.7342 18.7035 52.174 14.8248 52.174 10.4456Z" fill="#FEFCF7"/>
<path d="M68.94 10.446C68.94 23.1457 57.9295 33.906 42.8526 37.3468C42.227 37.4719 41.8516 37.9724 41.7891 38.598C56.1153 35.8453 67.2509 27.0244 70.0035 15.8887C70.5666 13.7617 70.1287 11.5095 68.8775 9.69531C68.94 10.0081 68.94 10.1958 68.94 10.446Z" fill="#FEFCF7"/>
<path d="M42.8532 48.358C56.9292 46.1684 68.9407 39.4745 76.1351 30.4033C77.2611 28.9645 77.6365 27.0251 77.0735 25.2734C71.0677 35.9712 58.8685 44.0414 43.9168 46.8566C43.166 46.9191 42.7281 47.6698 42.8532 48.358Z" fill="#FEFCF7"/>
<path d="M44.1657 53.0524C47.4813 62.8743 53.6122 70.8819 57.3658 75.136C59.1175 77.1379 62.1829 77.1379 63.9346 75.136C69.3147 68.9426 79.5119 55.242 79.5119 39.2892C79.5119 36.474 79.1992 33.6588 78.6361 30.9688C71.5669 40.4153 59.743 47.4845 45.7297 50.2372C44.541 50.55 43.7903 51.8637 44.1657 53.0524Z" fill="#FEFCF7"/>
<path d="M53.1134 10.4478C53.1134 15.2649 50.3608 19.519 45.9816 22.4593C45.4186 22.8347 45.0432 23.3977 44.793 23.9607C50.4234 21.0204 54.1769 16.0157 54.1769 10.4478C54.1769 9.57199 54.0518 8.69615 53.8641 7.82031C53.3637 8.50847 53.1134 9.25919 53.1134 10.0725C53.1134 10.2601 53.1134 10.3853 53.1134 10.4478Z" fill="#FEFCF7"/>
</svg>
