<svg width="115" height="50" viewBox="0 0 115 50" fill="none" xmlns="http://www.w3.org/2000/svg">
<path d="M108.393 33.0933C108.343 33.0933 108.293 33.1434 108.293 33.2435C108.293 33.3436 108.343 33.3937 108.393 33.3937H109.344V38.7007H108.393C108.343 38.7007 108.293 38.7507 108.293 38.8509C108.293 38.951 108.343 39.0011 108.393 39.0011H109.244C109.544 39.0011 109.644 38.9009 109.644 38.6506V33.5439C109.644 33.2936 109.544 33.1934 109.244 33.1934H108.393V33.0933ZM107.191 33.3436C107.191 33.2435 107.141 33.2435 107.041 33.2435C106.991 33.2435 106.891 33.2936 106.891 33.3436V38.5004C106.891 38.6005 106.941 38.6005 107.041 38.6005C107.141 38.6005 107.191 38.5505 107.191 38.5004V33.3436ZM104.237 33.8443C104.988 33.8443 105.339 34.4451 105.339 35.3963C105.339 36.3476 104.988 36.9484 104.237 36.9484C103.486 36.9484 103.136 36.3476 103.136 35.3963C103.136 34.4451 103.436 33.8443 104.237 33.8443ZM104.237 37.2488C105.138 37.2488 105.639 36.5979 105.639 35.3963C105.639 34.1947 105.138 33.5439 104.237 33.5439C103.336 33.5439 102.835 34.1947 102.835 35.3963C102.785 36.5979 103.286 37.2488 104.237 37.2488ZM101.183 35.2461V33.3436C101.183 33.2435 101.133 33.2435 101.033 33.2435C100.983 33.2435 100.883 33.2936 100.883 33.3436V38.5004C100.883 38.6005 100.933 38.6005 101.033 38.6005C101.133 38.6005 101.183 38.5505 101.183 38.5004V35.4965H102.034C102.134 35.4965 102.134 35.4464 102.134 35.3463C102.134 35.2962 102.084 35.1961 102.034 35.1961H101.183V35.2461ZM97.8288 33.9444C97.9289 33.9444 97.9289 33.9945 97.9289 34.0445V34.5953C97.9289 35.5465 97.9289 35.7968 96.7774 36.8983C96.7273 36.9484 96.7273 36.9984 96.7774 37.0986C96.8275 37.1486 96.9276 37.1486 96.9777 37.0986C98.1792 35.9471 98.1792 35.6967 98.1792 34.6453V34.0946C98.1792 33.7942 98.0791 33.6941 97.7787 33.6941H96.9777C96.8775 33.6941 96.8775 33.7442 96.8775 33.8443C96.8775 33.8944 96.9276 33.9945 96.9777 33.9945H97.8288V33.9444ZM99.4309 33.9444C99.531 33.9444 99.531 33.9945 99.531 34.0445V34.7455C99.531 35.6967 99.4309 36.1974 98.3294 37.3489C98.2794 37.399 98.2794 37.449 98.3294 37.5492C98.3795 37.5992 98.4796 37.5992 98.5297 37.5492C99.7313 36.2975 99.8314 35.8469 99.8314 34.7955V34.0946C99.8314 33.7942 99.7313 33.6941 99.4309 33.6941H98.6298C98.5297 33.6941 98.5297 33.7442 98.5297 33.8443C98.5297 33.8944 98.5798 33.9945 98.6298 33.9945H99.4309V33.9444ZM95.2754 35.2461V33.3436C95.2754 33.2435 95.2254 33.2435 95.1252 33.2435C95.0752 33.2435 94.975 33.2936 94.975 33.3436V38.5004C94.975 38.6005 95.0251 38.6005 95.1252 38.6005C95.2254 38.6005 95.2754 38.5505 95.2754 38.5004V35.4965H96.1766C96.2767 35.4965 96.2767 35.4464 96.2767 35.3463C96.2767 35.2962 96.2267 35.1961 96.1766 35.1961H95.2754V35.2461ZM93.2728 33.9444C93.3729 33.9444 93.3729 33.9945 93.3729 34.0445V34.7455C93.3729 35.6967 93.0725 35.9471 91.17 37.0986C91.1199 37.1486 91.12 37.2488 91.12 37.2988C91.17 37.3489 91.2201 37.399 91.2701 37.3489C93.2728 36.0972 93.6232 35.7968 93.6232 34.7455V34.0445C93.6232 33.7442 93.5231 33.644 93.2227 33.644H91.2701C91.17 33.644 91.17 33.6941 91.17 33.7942C91.17 33.8443 91.2201 33.9444 91.2701 33.9444H93.2728ZM85.062 38.6506C84.9619 38.6506 84.9619 38.6005 84.9619 38.5505V37.1486C84.9619 37.0485 84.9118 37.0485 84.8117 37.0485C84.7115 37.0485 84.6615 37.0986 84.6615 37.1486V38.5505C84.6615 38.8509 84.7616 38.951 85.062 38.951H88.2662C88.3663 38.951 88.3663 38.9009 88.3663 38.8008C88.3663 38.7507 88.3163 38.6506 88.2662 38.6506H85.062ZM87.9157 37.3489C87.9157 37.449 87.9658 37.449 88.066 37.449C88.116 37.449 88.2161 37.399 88.2161 37.3489V33.3436C88.2161 33.2435 88.1661 33.2435 88.066 33.2435C87.9658 33.2435 87.9157 33.2936 87.9157 33.3436V34.1947H86.8143C86.7642 34.1947 86.7142 34.2448 86.7142 34.3449C86.7142 34.395 86.7642 34.4951 86.8143 34.4951H87.9157V35.4965H86.8143C86.7642 35.4965 86.7142 35.5465 86.7142 35.6466C86.7142 35.6967 86.7642 35.7969 86.8143 35.7969H87.9157V37.3489ZM86.1634 34.9457C86.1634 35.5465 85.863 36.0972 85.1121 36.0972C84.3611 36.0972 84.0607 35.5465 84.0607 34.9457C84.0607 34.3449 84.3611 33.7942 85.1121 33.7942C85.863 33.7942 86.1634 34.3449 86.1634 34.9457ZM83.7603 34.9457C83.7603 35.6967 84.2109 36.3476 85.1121 36.3476C86.0633 36.3476 86.4638 35.6967 86.4638 34.9457C86.4638 34.1947 86.0132 33.5439 85.1121 33.5439C84.1608 33.5439 83.7603 34.1947 83.7603 34.9457ZM82.1081 35.2461V33.3436C82.1081 33.2435 82.0581 33.2435 81.9579 33.2435C81.9079 33.2435 81.8077 33.2936 81.8077 33.3436V38.5004C81.8077 38.6005 81.8578 38.6005 81.9579 38.6005C82.0581 38.6005 82.1081 38.5505 82.1081 38.5004V35.4965H83.0093C83.1094 35.4965 83.1094 35.4464 83.1094 35.3463C83.1094 35.2962 83.0594 35.1961 83.0093 35.1961H82.1081V35.2461ZM80.9065 33.9945C80.9566 33.9945 81.0067 33.9444 81.0067 33.8443C81.0067 33.7942 80.9566 33.6941 80.9065 33.6941H77.9527C77.9026 33.6941 77.8525 33.7442 77.8525 33.8443C77.8525 33.9444 77.9026 33.9945 77.9527 33.9945H79.3044V34.8456C79.3044 35.4464 79.2043 35.6967 78.7537 36.1473C78.4533 36.4477 78.1529 36.7481 77.8025 37.0485C77.7524 37.0986 77.7524 37.1987 77.8025 37.2488C77.8525 37.2988 77.9026 37.2988 78.0027 37.2488C78.3031 36.9484 78.6035 36.698 78.9039 36.3976C79.3545 35.947 79.4046 35.7968 79.4546 35.6466C79.5047 35.7968 79.5548 35.947 80.0053 36.3976C80.3057 36.698 80.6062 36.9484 80.8064 37.1486C80.8565 37.1987 80.9566 37.1987 81.0067 37.1486C81.0567 37.0986 81.0567 36.9984 81.0067 36.9484C80.7563 36.7481 80.4559 36.4477 80.1055 36.0972C79.6549 35.6467 79.5548 35.3963 79.5548 34.7955V33.9945H80.9065ZM76.2504 33.0933C75.95 33.0933 75.8499 33.1934 75.8499 33.4438V38.5505C75.8499 38.8008 75.95 38.9009 76.2504 38.9009H77.1015C77.1516 38.9009 77.2017 38.8509 77.2017 38.7507C77.2017 38.6506 77.1516 38.6005 77.1015 38.6005H76.1503V33.2936H77.1015C77.1516 33.2936 77.2017 33.2435 77.2017 33.1434C77.2017 33.0432 77.1516 32.9932 77.1015 32.9932H76.2504V33.0933ZM71.4942 38.7007H71.8947V36.9484C71.8947 36.7982 71.8947 36.648 71.9448 36.4978C71.9948 36.3476 72.0449 36.2474 72.145 36.1473C72.2451 36.0472 72.3453 35.947 72.4955 35.897C72.6457 35.8469 72.7959 35.7969 72.9461 35.7969C72.9961 35.7969 73.0462 35.7969 73.0963 35.8469L73.1463 35.4464C73.0963 35.4464 73.0462 35.4464 73.0462 35.4464C72.9962 35.4464 72.9461 35.4464 72.9461 35.4464C72.6958 35.4464 72.4955 35.4964 72.3453 35.6466C72.1951 35.7968 72.0449 35.9471 71.9448 36.0972C71.9448 36.0472 71.9448 35.9971 71.9448 35.897C71.9448 35.7968 71.9448 35.6467 71.9448 35.5465H71.5442C71.5442 35.5966 71.5442 35.6467 71.5442 35.7468C71.5442 35.8469 71.5442 35.897 71.5442 35.9971C71.5442 36.0972 71.5442 36.1974 71.5442 36.2474C71.5442 36.2975 71.5442 36.3976 71.5442 36.4477V38.7007H71.4942ZM69.7419 37.0986V37.2988C69.7419 37.449 69.7419 37.5491 69.6918 37.6993C69.6417 37.8495 69.5917 37.9497 69.4915 38.0498C69.3914 38.1499 69.2913 38.2501 69.1411 38.3001C68.9909 38.3502 68.7906 38.4003 68.5903 38.4003C68.4902 38.4003 68.3901 38.4003 68.34 38.3502C68.2399 38.3001 68.1898 38.3001 68.0897 38.2501C68.0396 38.2 67.9395 38.1499 67.9395 38.0498C67.8894 37.9497 67.8894 37.8996 67.8894 37.7995C67.8894 37.6493 67.9395 37.5491 67.9896 37.449C68.0897 37.3489 68.1898 37.2988 68.29 37.2488C68.4402 37.1987 68.5903 37.1486 68.7405 37.1486C68.8907 37.1486 69.091 37.0986 69.2412 37.0986H69.7419ZM70.0923 36.5478C70.0923 36.1473 69.9922 35.8469 69.7419 35.6466C69.4915 35.4464 69.1912 35.3463 68.7906 35.3463C68.5904 35.3463 68.34 35.3963 68.1397 35.4464C67.8894 35.5465 67.7392 35.6467 67.589 35.7969L67.8394 36.0972C68.1398 35.8469 68.4402 35.7468 68.8407 35.7468C69.091 35.7468 69.3413 35.7968 69.4915 35.947C69.6417 36.0472 69.7419 36.2474 69.7419 36.5478V36.7481H69.2412C69.091 36.7481 68.8907 36.7481 68.6905 36.7982C68.4902 36.8482 68.29 36.8482 68.0897 36.9484C67.8894 36.9984 67.7392 37.1486 67.6391 37.2988C67.4889 37.449 67.4388 37.6493 67.4388 37.8996C67.4388 38.0498 67.4889 38.2 67.539 38.3502C67.589 38.4503 67.6892 38.5505 67.7893 38.6506C67.8894 38.7507 68.0396 38.8008 68.1397 38.8008C68.2899 38.8509 68.3901 38.8509 68.5403 38.8509C68.8407 38.8509 69.0409 38.8008 69.2412 38.7007C69.4415 38.6005 69.5917 38.4503 69.6918 38.2501C69.6918 38.4503 69.6918 38.6005 69.7419 38.8008H70.1424C70.1424 38.7007 70.1424 38.6005 70.0923 38.5004C70.0423 38.4003 70.0923 38.3001 70.0923 38.2C70.0923 38.0999 70.0923 37.9998 70.0923 37.8496C70.0923 37.6994 70.0923 37.5992 70.0923 37.3989V36.5478ZM63.6338 36.8482C63.6338 36.7982 63.6338 36.7481 63.6839 36.5979C63.734 36.4978 63.784 36.3476 63.8841 36.2474C63.9843 36.1473 64.0844 35.9971 64.2346 35.947C64.3848 35.8469 64.5851 35.7969 64.7854 35.7969C64.9356 35.7969 65.0857 35.8469 65.2359 35.897C65.3861 35.947 65.4863 36.0472 65.5864 36.1473C65.6865 36.2474 65.7867 36.3476 65.8367 36.4978C65.8868 36.648 65.9369 36.7481 65.9369 36.8983H63.6338V36.8482ZM65.9369 37.8496C65.8367 38.0498 65.6865 38.1499 65.4863 38.2501C65.286 38.3502 65.0857 38.4003 64.8855 38.4003C64.6351 38.4003 64.4349 38.3502 64.2847 38.2501C64.1345 38.1499 63.9843 38.0498 63.9342 37.8996C63.8341 37.7494 63.784 37.6493 63.734 37.4991C63.6839 37.3489 63.6839 37.2488 63.6839 37.1486H66.3874V36.8482C66.3874 36.648 66.3374 36.4978 66.2873 36.2975C66.2373 36.0972 66.1371 35.947 65.9869 35.7969C65.8367 35.6467 65.6865 35.5465 65.4863 35.4464C65.286 35.3463 65.0857 35.2962 64.8354 35.2962C64.5851 35.2962 64.3848 35.3463 64.1846 35.4464C63.9843 35.5465 63.8341 35.6467 63.6839 35.7969C63.5337 35.947 63.4336 36.1473 63.3334 36.3476C63.2333 36.5478 63.2333 36.7982 63.2333 36.9984C63.2333 37.2488 63.2834 37.4991 63.3334 37.6993C63.4336 37.8996 63.5337 38.0999 63.6839 38.2501C63.8341 38.4003 63.9843 38.5004 64.1846 38.6005C64.3848 38.7007 64.6351 38.7507 64.8354 38.7507C65.1358 38.7507 65.3861 38.7007 65.6365 38.6005C65.8868 38.5004 66.0871 38.3001 66.2372 38.0498L65.9369 37.8496ZM57.7761 38.7007H58.2267V34.3449L61.2307 38.7007H61.8315V33.7442H61.3809V38.0999L58.3769 33.7442H57.7761V38.7007ZM51.618 36.8482C51.618 36.7982 51.618 36.7481 51.6681 36.5979C51.7182 36.4978 51.7682 36.3476 51.8684 36.2474C51.9685 36.1473 52.0686 35.9971 52.2188 35.947C52.369 35.8469 52.5693 35.7969 52.7696 35.7969C52.9198 35.7969 53.0699 35.8469 53.2201 35.897C53.3703 35.947 53.4705 36.0472 53.5706 36.1473C53.6707 36.2474 53.7709 36.3476 53.8209 36.4978C53.871 36.648 53.9211 36.7481 53.9211 36.8983H51.618V36.8482ZM53.9211 37.8496C53.8209 38.0498 53.6707 38.1499 53.4705 38.2501C53.2702 38.3502 53.0699 38.4003 52.8697 38.4003C52.6193 38.4003 52.4191 38.3502 52.2689 38.2501C52.1187 38.1499 51.9685 38.0498 51.9184 37.8996C51.8183 37.7494 51.7682 37.6493 51.7182 37.4991C51.6681 37.3489 51.6681 37.2488 51.6681 37.1486H54.3716V36.8482C54.3716 36.648 54.3216 36.4978 54.2715 36.2975C54.2215 36.0972 54.1213 35.947 53.9711 35.7969C53.8209 35.6467 53.6707 35.5465 53.4705 35.4464C53.2702 35.3463 53.0699 35.2962 52.8196 35.2962C52.5693 35.2962 52.369 35.3463 52.1688 35.4464C51.9685 35.5465 51.8183 35.6467 51.6681 35.7969C51.5179 35.947 51.4178 36.1473 51.3176 36.3476C51.2175 36.5478 51.2175 36.7982 51.2175 36.9984C51.2175 37.2488 51.2676 37.4991 51.3176 37.6993C51.4178 37.8996 51.5179 38.0999 51.6681 38.2501C51.8183 38.4003 51.9685 38.5004 52.1688 38.6005C52.369 38.7007 52.6194 38.7507 52.8196 38.7507C53.12 38.7507 53.3703 38.7007 53.6207 38.6005C53.871 38.5004 54.0713 38.3001 54.2215 38.0498L53.9211 37.8496ZM48.8644 38.7007H49.265V36.9484C49.265 36.7982 49.2649 36.648 49.315 36.4978C49.3651 36.3476 49.4152 36.2474 49.5153 36.1473C49.6154 36.0472 49.7155 35.947 49.8657 35.897C50.0159 35.8469 50.1661 35.7969 50.3163 35.7969C50.3664 35.7969 50.4165 35.7969 50.4665 35.8469L50.5166 35.4464C50.4665 35.4464 50.4165 35.4464 50.4165 35.4464H50.3163C50.066 35.4464 49.8657 35.4964 49.7155 35.6466C49.5653 35.7968 49.4151 35.9471 49.315 36.0972C49.315 36.0472 49.315 35.9971 49.315 35.897C49.315 35.7968 49.315 35.6467 49.315 35.5465H48.9145C48.9145 35.5966 48.9145 35.6467 48.9145 35.7468C48.9145 35.8469 48.9145 35.897 48.9145 35.9971C48.9145 36.0972 48.9145 36.1974 48.9145 36.2474C48.9145 36.3476 48.9145 36.3976 48.9145 36.4477V38.7007H48.8644ZM47.4626 35.4965H47.0621V37.0986C47.0621 37.2988 47.012 37.4991 46.9619 37.6993C46.9118 37.8495 46.8117 37.9998 46.7116 38.0999C46.6115 38.2 46.5113 38.3001 46.3611 38.3502C46.2109 38.4003 46.0607 38.4503 45.9105 38.4503C45.7603 38.4503 45.6102 38.4003 45.51 38.3502C45.4099 38.3001 45.3098 38.2 45.2597 38.0999C45.2096 37.9998 45.1596 37.8996 45.1596 37.7494C45.1596 37.6493 45.1095 37.4991 45.1095 37.3489V35.4965H44.709V37.449C44.709 37.6493 44.709 37.7995 44.759 37.9497C44.8091 38.0999 44.8591 38.2501 44.9593 38.4003C45.0594 38.5505 45.1595 38.6506 45.3598 38.7007C45.51 38.8008 45.7103 38.8008 45.9606 38.8008C46.2109 38.8008 46.4613 38.7507 46.6615 38.6005C46.8618 38.4503 47.012 38.3001 47.0621 38.1499C47.0621 38.2 47.0621 38.2501 47.0621 38.3502C47.0621 38.4503 47.0621 38.6005 47.0621 38.7007H47.4626C47.4626 38.6506 47.4626 38.6005 47.4626 38.5004C47.4626 38.4003 47.4626 38.3502 47.4626 38.2501C47.4626 38.1499 47.4626 38.0498 47.4626 37.9997C47.4626 37.8996 47.4626 37.8496 47.4626 37.7995V35.4965ZM43.6576 35.4965H42.7063V34.5452H42.3058V35.4965H41.6049V35.897H42.3058V37.9997C42.3058 38.0999 42.3058 38.2501 42.3559 38.3502C42.4059 38.4503 42.456 38.5505 42.5061 38.6005C42.5561 38.6506 42.6563 38.7507 42.7564 38.8008C42.8565 38.8509 43.0067 38.8509 43.1569 38.8509C43.2571 38.8509 43.3071 38.8509 43.4073 38.8008C43.5074 38.8008 43.6075 38.7507 43.6576 38.7007L43.6075 38.3001C43.5574 38.3502 43.4573 38.3502 43.3572 38.4003C43.257 38.4003 43.207 38.4503 43.1068 38.4503C42.9566 38.4503 42.8565 38.4003 42.7564 38.3502C42.6563 38.2501 42.6563 38.1499 42.6563 37.9997V35.897H43.6075V35.4965H43.6576ZM40.3032 37.0986V37.2988C40.3032 37.449 40.3032 37.5491 40.2531 37.6993C40.203 37.8495 40.153 37.9497 40.0528 38.0498C39.9527 38.1499 39.8526 38.2501 39.7024 38.3001C39.5522 38.3502 39.3519 38.4003 39.1517 38.4003C39.0515 38.4003 38.9514 38.4003 38.9013 38.3502C38.8012 38.3001 38.7511 38.3001 38.651 38.2501C38.6009 38.2 38.5008 38.1499 38.5008 38.0498C38.4507 37.9497 38.4507 37.8996 38.4507 37.7995C38.4507 37.6493 38.5008 37.5491 38.5509 37.449C38.651 37.3489 38.7511 37.2988 38.8512 37.2488C39.0014 37.1987 39.1517 37.1486 39.3019 37.1486C39.452 37.1486 39.6523 37.0986 39.8025 37.0986H40.3032ZM40.6536 36.5478C40.6536 36.1473 40.5535 35.8469 40.3032 35.6466C40.0528 35.4464 39.7524 35.3463 39.3519 35.3463C39.1516 35.3463 38.9013 35.3963 38.7011 35.4464C38.4507 35.5465 38.3005 35.6467 38.1503 35.7969L38.4007 36.0972C38.7011 35.8469 39.0015 35.7468 39.402 35.7468C39.6523 35.7468 39.9026 35.7968 40.0528 35.947C40.203 36.0472 40.3032 36.2474 40.3032 36.5478V36.7481H39.8025C39.6523 36.7481 39.4521 36.7481 39.2518 36.7982C39.0515 36.8482 38.8513 36.8482 38.651 36.9484C38.4507 37.0485 38.3005 37.1486 38.2004 37.2988C38.0502 37.449 38.0002 37.6493 38.0002 37.8996C38.0002 38.0498 38.0502 38.2 38.1003 38.3502C38.1503 38.4503 38.2505 38.5505 38.3506 38.6506C38.4507 38.7507 38.6009 38.8008 38.7011 38.8008C38.8513 38.8509 38.9514 38.8509 39.1016 38.8509C39.402 38.8509 39.6022 38.8008 39.8025 38.7007C40.0028 38.6005 40.153 38.4503 40.2531 38.2501C40.2531 38.4503 40.2531 38.6005 40.3032 38.8008H40.7037C40.7037 38.7007 40.6536 38.6005 40.6536 38.5004C40.6536 38.4003 40.6536 38.3001 40.6536 38.2C40.6536 38.0999 40.6536 37.9998 40.6536 37.8496C40.6536 37.6994 40.6536 37.5992 40.6536 37.3989V36.5478ZM32.543 38.7007H32.9936V34.3449L35.9975 38.7007H36.5983V33.7442H36.1477V38.0999L33.1438 33.7442H32.543V38.7007Z" fill="#149473"/>
<path d="M107.992 10.1631C107.191 10.1631 106.44 10.5636 106.44 11.4648V26.6347C106.44 27.5359 107.191 27.9364 107.992 27.9364C108.793 27.9364 109.544 27.5359 109.544 26.6347V19.9259H112.949C113.75 19.9259 114.1 19.3251 114.1 18.5741C114.1 17.8232 113.75 17.2724 112.949 17.2724H109.544V11.4648C109.544 10.5636 108.793 10.1631 107.992 10.1631ZM81.257 10.1631C80.506 10.1631 79.705 10.5636 79.705 11.4648V26.6347C79.705 27.5359 80.4559 27.9364 81.257 27.9364C82.1081 27.9364 82.809 27.5359 82.809 26.6347V11.4648C82.8591 10.5636 82.1081 10.1631 81.257 10.1631ZM63.0331 11.9655C62.232 11.9655 61.481 12.366 61.481 13.2672V22.8297C61.481 24.582 62.0317 25.1328 63.8341 25.1328C70.0423 25.1328 73.6971 24.8324 76.5508 24.4318C77.2517 24.3317 77.502 23.6809 77.4019 22.9299C77.3519 22.2289 76.9013 21.6782 76.1503 21.7784C72.8459 22.229 69.3914 22.4793 65.1859 22.4793C64.7353 22.4793 64.535 22.279 64.535 21.8284V13.2171C64.5851 12.366 63.8341 11.9655 63.0331 11.9655ZM48.6141 10.4635C47.8631 10.4635 47.1622 10.8139 47.1622 11.6651V16.3713H42.1055C41.3545 16.3713 41.0041 16.972 41.0041 17.673C41.0041 18.3739 41.3545 18.9747 42.1055 18.9747H47.1622V25.3831C47.1622 26.2342 47.8631 26.5847 48.6141 26.5847C49.315 26.5847 50.0159 26.2342 50.0159 25.3831V11.6651C50.0159 10.8139 49.315 10.4635 48.6141 10.4635ZM54.2715 10.1631C53.5706 10.1631 52.8697 10.5136 52.8697 11.3647V26.6848C52.8697 27.5359 53.5706 27.8864 54.2715 27.8864C55.0225 27.8864 55.7234 27.5359 55.7234 26.6848V11.3647C55.7234 10.5136 55.0225 10.1631 54.2715 10.1631ZM34.095 12.1657C33.2939 12.1657 32.543 12.5662 32.543 13.4674V22.7797C32.543 24.532 33.1438 25.0827 34.8961 25.0827C39.0015 25.0827 42.3058 24.8324 43.9079 24.582C44.6088 24.4819 44.8592 23.8311 44.759 23.0801C44.6589 22.3291 44.2584 21.8284 43.5074 21.9285C41.4046 22.2289 38.3005 22.4292 36.2479 22.4292C35.7973 22.4292 35.597 22.229 35.597 21.7784V13.4674C35.647 12.5662 34.896 12.1657 34.095 12.1657Z" fill="#149473"/>
<path d="M99.7315 18.9751C99.7315 21.3783 97.7789 23.3308 95.3758 23.3308C92.9726 23.3308 91.02 21.3783 91.02 18.9751C91.02 16.5719 92.9726 14.6194 95.3758 14.6194C97.7789 14.6194 99.7315 16.5719 99.7315 18.9751ZM102.535 18.9751C102.535 15.0199 99.331 11.7656 95.3257 11.7656C91.3705 11.7656 88.1162 14.9698 88.1162 18.9751C88.1162 22.9804 91.3204 26.1846 95.3257 26.1846C99.331 26.1846 102.535 22.9804 102.535 18.9751Z" fill="#149473"/>
<path d="M8.51097 6.70929C8.51097 10.5644 5.95761 13.9688 2.05248 15.9715C1.75209 16.1217 1.45169 16.4221 1.35156 16.7725V16.8226C6.05775 14.87 9.26195 11.065 9.26195 6.65922C9.26195 5.60784 9.06169 4.60652 8.71123 3.65527C8.41083 4.0558 8.26064 4.55646 8.36077 5.05712C8.46091 5.60784 8.51097 6.15857 8.51097 6.70929Z" fill="#149473"/>
<path d="M9.96328 6.70845C9.96328 11.3646 6.55882 15.4199 1.6023 17.5227C1.25184 17.6729 1.0015 17.9733 0.901367 18.3237C6.709 16.3211 10.7643 11.8652 10.7643 6.75852C10.7643 5.25655 10.4139 3.80464 9.76302 2.50293C9.46263 2.85339 9.36249 3.35404 9.51269 3.80464C9.81309 4.65575 9.96328 5.65707 9.96328 6.70845Z" fill="#149473"/>
<path d="M11.5653 6.70867C11.5653 12.1658 7.30966 16.9221 1.2517 19.0249C0.901239 19.125 0.650913 19.4254 0.550781 19.7759C7.45986 17.7732 12.4164 12.6665 12.4164 6.70867C12.4164 4.75611 11.8656 2.8536 10.9144 1.15137C10.5639 1.50183 10.4638 2.05256 10.6641 2.50315C11.2649 3.80486 11.5653 5.2067 11.5653 6.70867Z" fill="#149473"/>
<path d="M12.0655 0C11.7651 0.300395 11.665 0.750986 11.8653 1.10145C12.7665 2.85375 13.3172 4.70618 13.3172 6.70881C13.3172 13.0171 8.16039 18.4242 0.950918 20.577C0.600458 20.6772 0.300066 20.9776 0.25 21.328C8.36066 19.3254 14.2684 13.5178 14.2684 6.70881C14.2684 4.45585 13.8679 2.20289 12.5161 0.450589C12.2658 0.100129 12.0655 0 12.0655 0Z" fill="#149473"/>
<path d="M15.2705 6.7091C15.2705 13.9186 9.16249 20.0767 0.751435 22.2295C0.400975 22.3296 0.100586 22.63 0.100586 22.9805C9.46289 20.9779 16.3219 14.4192 16.3219 6.7091C16.3219 5.45746 15.8212 4.20581 15.0202 3.25456C14.87 3.0543 14.7198 2.9041 14.5696 2.75391C15.0202 3.95549 15.2705 5.30726 15.2705 6.7091Z" fill="#149473"/>
<path d="M0.250557 28.7376C9.46266 27.2356 17.1227 22.4794 20.9778 16.121C21.5786 15.1197 21.6787 13.868 21.1781 12.7666C18.4244 20.1763 10.6642 25.984 0.951475 27.8364C0.500883 27.8865 0.200491 28.287 0.250557 28.7376Z" fill="#149473"/>
<path d="M0.0503811 26.6355C0.0503811 26.6355 0.0503811 26.6855 0.0503811 26.6355C9.31255 25.0334 16.7724 19.7764 19.6762 12.9675C20.1768 11.816 20.0767 10.5143 19.4258 9.46289C17.9739 17.3733 10.5141 23.7316 0.70123 25.7843C0.300704 25.8845 0.000315268 26.2349 0.0503811 26.6355Z" fill="#149473"/>
<path d="M6.60904 6.70905C6.60904 6.65898 6.60904 6.60892 6.60904 6.50879C5.2072 8.56149 3.75529 11.0147 2.55371 13.7183C5.057 11.966 6.60904 9.46267 6.60904 6.70905Z" fill="#149473"/>
<path d="M17.3728 6.7084C17.3728 14.8691 10.3135 21.7281 0.650849 23.931C0.250323 24.0312 0 24.3316 0 24.7321C9.16204 22.9798 16.2714 17.3224 18.0738 10.213C18.4242 8.86123 18.1739 7.40933 17.3728 6.25781C17.3228 6.35794 17.3728 6.50814 17.3728 6.7084Z" fill="#149473"/>
<path d="M0.651021 30.9406C0.651021 30.9406 0.651021 30.9906 0.651021 30.9406C9.66287 29.5387 17.3229 25.2831 21.9791 19.4254C22.73 18.4742 22.9804 17.2726 22.5799 16.1211C18.7248 22.9801 10.9145 28.1869 1.35195 29.9393C0.851296 30.0394 0.550889 30.49 0.651021 30.9406Z" fill="#149473"/>
<path d="M1.50246 33.9945C3.65529 40.3028 7.56042 45.4095 9.96358 48.1631C11.065 49.4148 13.0677 49.4649 14.1691 48.1631C17.6236 44.2079 24.1823 35.3964 24.1823 25.1829C24.1823 23.3806 23.982 21.5782 23.6316 19.876C19.0756 25.9339 11.5156 30.4399 2.55385 32.2422C1.70273 32.3424 1.25213 33.1935 1.50246 33.9945Z" fill="#149473"/>
<path d="M7.20932 6.70881C7.20932 9.76283 5.45702 12.5164 2.65333 14.3689C2.30287 14.6192 2.05254 14.9697 1.90234 15.3702C5.50708 13.4677 7.91024 10.3136 7.91024 6.70881C7.91024 6.15809 7.81011 5.60736 7.70998 5.05664C7.40958 5.45717 7.25899 6.45851 7.25899 6.45851C7.25899 6.45851 7.20932 6.60868 7.20932 6.70881Z" fill="#149473"/>
</svg>
